<svg width="1630" height="1253" viewBox="0 0 1630 1253" fill="none" xmlns="http://www.w3.org/2000/svg">
<path d="M277.5 714V1069" stroke="white"/>
<path d="M1197.5 489V679" stroke="white"/>
<path d="M1159 538.5H1249" stroke="white"/>
<path d="M247 721.5H466" stroke="white"/>
<path d="M693 410.5H971" stroke="white"/>
<path d="M949.5 392V486" stroke="white"/>
<path d="M271.562 475.589L286.089 460.541L319.586 500.697L312.289 509.263L271.562 475.589Z" fill="#956AEC"/>
<path d="M353.518 439L374.433 439.001L368.805 490.99L357.573 491.689L353.518 439Z" fill="#956AEC"/>
<path d="M226.915 692.196L226.002 671.301L278.187 674.651L279.377 685.841L226.915 692.196Z" fill="#956AEC"/>
<mask id="mask0_1673_427" style="mask-type:alpha" maskUnits="userSpaceOnUse" x="273" y="474" width="141" height="320">
<path d="M413.156 474.785H273V793.863H413.156V474.785Z" fill="#D9D9D9"/>
</mask>
<g mask="url(#mask0_1673_427)">
<path d="M411.007 554.343C409.341 571.32 401.062 580.15 394.104 585.526C390.204 588.482 393.562 545.107 349.552 523.95C377.491 566.384 355.706 580.935 347.488 586.806C333.243 565.503 334.874 572.122 322.208 566.686C339.348 599.354 341.124 610.676 331.654 620.627C327.309 622.151 317.563 620.546 306.704 596.947C307.863 611.367 304.382 612.064 316.231 636.798L305.564 633.794C305.564 633.794 297.863 627.813 288.539 632.303C280.111 643.868 334.151 671.122 333.673 673.442C339.105 699.473 368.76 720.791 388.087 716.493C390.789 715.892 467.033 698.043 448.994 653.664L440.157 655.472C470.316 652.767 480.01 637.53 475.165 626.407C466.34 606.147 418.79 628.096 414.608 601.438C410.425 574.78 423.847 586.83 411.007 554.343Z" fill="url(#paint0_linear_1673_427)"/>
<g filter="url(#filter0_d_1673_427)">
<path d="M379.593 624.516C383.18 632.491 391.107 636.698 397.299 633.913C403.49 631.128 405.601 622.406 402.014 614.431C398.427 606.456 390.499 602.249 384.308 605.034C378.117 607.819 376.006 616.541 379.593 624.516Z" fill="white"/>
</g>
<g filter="url(#filter1_d_1673_427)">
<path d="M355.681 655.494C349.489 658.279 341.562 654.072 337.975 646.097C334.388 638.122 336.499 629.4 342.69 626.615C348.881 623.83 356.808 628.037 360.396 636.012C363.983 643.987 361.872 652.709 355.681 655.494Z" fill="white"/>
</g>
</g>
<g filter="url(#filter2_d_1673_427)">
<path d="M971 439H714V847H971V439Z" fill="#FF9255" fill-opacity="0.4"/>
</g>
<path d="M954 456H730V830H954V456Z" fill="#FF9255"/>
<path d="M714 361H413V1069H714V361Z" fill="white" fill-opacity="0.4"/>
<path d="M702 375H425V1055H702V375Z" fill="white"/>
<path d="M1224 847H522V1100H1224V847Z" fill="#A172FF" fill-opacity="0.4"/>
<path d="M1213.46 857H533.422V1090H1213.46V857Z" fill="#956AEC"/>
<path d="M399.991 735H171V1100.41H399.991V735Z" fill="#FFAC7E" fill-opacity="0.4"/>
<path d="M390.247 744.744H180.744V1090.67H390.247V744.744Z" fill="#FFAC7E"/>
<path d="M1457.99 511.006H1229V1100.41H1457.99V511.006Z" fill="#FFAC7E" fill-opacity="0.4"/>
<path d="M1448.24 526.723H1238.74V1084.69H1448.24V526.723Z" fill="#FFAC7E"/>
<g filter="url(#filter3_d_1673_427)">
<path d="M1325 636.997H984.002V847H1325V636.997Z" fill="#A49BFF" fill-opacity="0.4"/>
</g>
<path d="M1312.37 646.998H996.631V837.001H1312.37V646.998Z" fill="#A49BFF"/>
<g filter="url(#filter4_d_1673_427)">
<path d="M1151 256H730V405.004H1151V256Z" fill="#A49BFF" fill-opacity="0.4"/>
</g>
<path d="M1135 269.001H746V392.001H1135V269.001Z" fill="#A49BFF"/>
<g filter="url(#filter5_d_1673_427)">
<path d="M995.233 490H987.697V454.48H995.233L1005.79 480.976L1016.4 454.48H1024.03V490H1016.5V482.56C1016.5 480.64 1016.5 479.056 1016.5 477.808C1016.5 476.56 1016.51 475.52 1016.54 474.688C1016.58 473.856 1016.61 473.136 1016.64 472.528C1016.7 471.888 1016.78 471.232 1016.88 470.56L1009.34 490H1002.24L994.753 470.56C994.977 471.872 995.105 473.296 995.137 474.832C995.201 476.368 995.233 478.112 995.233 480.064V490ZM1053.99 490H1031.43V454.48H1053.99V461.68H1037.05L1039.21 459.664V468.64H1052.31V475.456H1039.21V484.816L1037.05 482.8H1053.99V490ZM1082.91 490H1060.35V454.48H1082.91V461.68H1065.97L1068.13 459.664V468.64H1081.23V475.456H1068.13V484.816L1065.97 482.8H1082.91V490ZM1104.39 458.224V490H1096.62V458.224H1104.39ZM1086.54 461.68V454.48H1114.47V461.68H1086.54ZM1002.82 523.224V555H995.041V523.224H1002.82ZM984.961 526.68V519.48H1012.9V526.68H984.961ZM1025.33 555H1017.56V519.48H1025.33V533.496H1039.06V519.48H1046.84V555H1039.06V540.696H1025.33V555ZM1076.77 555H1054.21V519.48H1076.77V526.68H1059.83L1061.99 524.664V533.64H1075.09V540.456H1061.99V549.816L1059.83 547.8H1076.77V555ZM1002.82 588.224V620H995.041V588.224H1002.82ZM984.961 591.68V584.48H1012.9V591.68H984.961ZM1040.12 620H1017.56V584.48H1040.12V591.68H1023.17L1025.33 589.664V598.64H1038.44V605.456H1025.33V614.816L1023.17 612.8H1040.12V620ZM1051.33 620H1043.21L1055.89 584.48H1063.47L1076.09 620H1067.84L1065.34 612.512H1053.87L1051.33 620ZM1058.67 598.4L1056.13 605.984H1063.13L1060.59 598.4C1060.4 597.792 1060.21 597.168 1060.01 596.528C1059.82 595.888 1059.69 595.36 1059.63 594.944C1059.57 595.36 1059.44 595.888 1059.25 596.528C1059.09 597.136 1058.89 597.76 1058.67 598.4ZM1087.76 620H1080.23V584.48H1087.76L1098.32 610.976L1108.93 584.48H1116.56V620H1109.03V612.56C1109.03 610.64 1109.03 609.056 1109.03 607.808C1109.03 606.56 1109.04 605.52 1109.08 604.688C1109.11 603.856 1109.14 603.136 1109.17 602.528C1109.24 601.888 1109.32 601.232 1109.41 600.56L1101.88 620H1094.77L1087.28 600.56C1087.51 601.872 1087.64 603.296 1087.67 604.832C1087.73 606.368 1087.76 608.112 1087.76 610.064V620Z" fill="white"/>
</g>
<g filter="url(#filter6_d_1673_427)">
<path fill-rule="evenodd" clip-rule="evenodd" d="M486.519 995.514C500.166 991.718 519.281 973.333 483.458 928.324C478.147 923.176 468.676 910.104 473.281 899C464.475 908.156 451.921 932.058 467.216 944.647C472.904 949.329 478.154 954.46 482.341 959.739C481.295 965.789 476.332 969.075 476.332 969.075C476.332 969.075 450.981 957.218 450.981 935.071C449.612 936.999 442.729 952.211 442.975 955.817C443.283 960.325 455.545 972.527 461.039 975.807C468.873 980.484 471.508 983.941 471.508 983.941C476.267 989.808 473.419 997.866 472.083 999.644C471.711 999.67 471.507 999.688 471.508 999.718C471.527 1000.14 471.761 1000.07 472.083 999.644C472.144 999.639 472.209 999.635 472.279 999.63C474.513 999.475 481.177 999.012 486.519 995.514ZM491.609 978.099C490.067 975.584 487.9 973.002 485.327 971.877C485.641 971.535 486.778 970.159 488.15 968.482C489.863 971.716 491.062 974.944 491.609 978.099ZM468.005 998.557C441.063 997.856 439.325 972.774 441.823 960.321C441.823 960.321 449.518 973.261 462.209 981.142C474.9 989.022 468.005 998.557 468.005 998.557Z" fill="url(#paint1_linear_1673_427)" fill-opacity="0.5"/>
</g>
<path d="M475.993 967.098L475.95 967.188C475.95 967.187 475.948 967.187 475.947 967.187C475.945 967.186 475.942 967.184 475.938 967.183C475.93 967.179 475.918 967.173 475.902 967.165C475.871 967.15 475.824 967.127 475.764 967.098C475.642 967.038 475.464 966.949 475.237 966.83C474.785 966.593 474.138 966.238 473.363 965.768C471.813 964.827 469.745 963.425 467.677 961.575C463.607 957.935 459.527 952.553 459.4 945.55C459.158 945.96 458.795 946.661 458.372 947.541C457.83 948.668 457.193 950.079 456.588 951.523C455.983 952.968 455.411 954.445 455.001 955.705C454.796 956.335 454.631 956.91 454.523 957.397C454.415 957.887 454.365 958.283 454.384 958.559C454.408 958.902 454.548 959.329 454.79 959.82C455.031 960.311 455.371 960.858 455.785 961.444C456.614 962.616 457.737 963.933 458.969 965.226C461.433 967.813 464.315 970.296 466.091 971.345C468.645 972.853 470.354 974.164 471.425 975.101C471.96 975.569 472.336 975.943 472.579 976.201C472.7 976.33 472.788 976.43 472.846 976.498C472.875 976.532 472.896 976.559 472.91 976.576C472.917 976.585 472.923 976.592 472.927 976.597C472.928 976.599 472.93 976.6 472.931 976.602L472.933 976.603C474.501 978.517 474.813 980.787 474.627 982.715C474.457 984.473 473.869 985.961 473.427 986.655C474.954 986.55 479.176 986.226 482.568 984.029L482.581 984.021L482.597 984.017C487.013 982.802 492.305 979.255 493.602 972.42C494.899 965.58 492.203 955.412 480.556 940.939C478.821 939.275 476.411 936.336 474.809 932.916C473.275 929.644 472.475 925.917 473.729 922.441C470.947 925.439 467.696 930.536 466.248 935.886C464.739 941.461 465.19 947.284 470.124 951.3C473.829 954.316 477.251 957.623 479.981 961.027L480.01 961.062L480.002 961.106C479.657 963.077 478.668 964.595 477.768 965.619C477.317 966.131 476.888 966.521 476.571 966.783C476.413 966.914 476.282 967.014 476.191 967.08C476.146 967.113 476.11 967.138 476.086 967.155C476.074 967.164 476.064 967.17 476.058 967.175C476.055 967.177 476.052 967.179 476.051 967.18L476.049 967.181L475.993 967.098ZM475.993 967.098L476.048 967.182L476.001 967.212L475.951 967.188L475.993 967.098ZM453.682 961.886C453.835 962.124 454.064 962.47 454.364 962.901C454.964 963.763 455.85 964.966 456.994 966.326C459.282 969.047 462.607 972.406 466.749 974.949C470.852 977.469 471.773 980.238 471.686 982.365C471.641 983.433 471.343 984.346 471.055 984.992C470.911 985.315 470.77 985.571 470.665 985.746C470.613 985.833 470.569 985.9 470.539 985.945C470.533 985.954 470.527 985.961 470.522 985.968C466.181 985.848 462.859 984.763 460.342 983.08C457.814 981.39 456.09 979.096 454.961 976.563C452.748 971.6 452.821 965.728 453.586 961.735C453.614 961.779 453.645 961.83 453.682 961.886ZM483.606 966.652C482.713 967.733 481.975 968.616 481.773 968.833L481.677 968.937L481.807 968.993C483.453 969.705 484.849 971.345 485.85 972.958L486.033 972.889C485.675 970.845 484.89 968.757 483.771 966.669L483.701 966.538L483.606 966.652Z" fill="url(#paint2_linear_1673_427)"/>
<path d="M475.993 967.098L475.95 967.188C475.95 967.187 475.948 967.187 475.947 967.187C475.945 967.186 475.942 967.184 475.938 967.183C475.93 967.179 475.918 967.173 475.902 967.165C475.871 967.15 475.824 967.127 475.764 967.098C475.642 967.038 475.464 966.949 475.237 966.83C474.785 966.593 474.138 966.238 473.363 965.768C471.813 964.827 469.745 963.425 467.677 961.575C463.607 957.935 459.527 952.553 459.4 945.55C459.158 945.96 458.795 946.661 458.372 947.541C457.83 948.668 457.193 950.079 456.588 951.523C455.983 952.968 455.411 954.445 455.001 955.705C454.796 956.335 454.631 956.91 454.523 957.397C454.415 957.887 454.365 958.283 454.384 958.559C454.408 958.902 454.548 959.329 454.79 959.82C455.031 960.311 455.371 960.858 455.785 961.444C456.614 962.616 457.737 963.933 458.969 965.226C461.433 967.813 464.315 970.296 466.091 971.345C468.645 972.853 470.354 974.164 471.425 975.101C471.96 975.569 472.336 975.943 472.579 976.201C472.7 976.33 472.788 976.43 472.846 976.498C472.875 976.532 472.896 976.559 472.91 976.576C472.917 976.585 472.923 976.592 472.927 976.597C472.928 976.599 472.93 976.6 472.931 976.602L472.933 976.603C474.501 978.517 474.813 980.787 474.627 982.715C474.457 984.473 473.869 985.961 473.427 986.655C474.954 986.55 479.176 986.226 482.568 984.029L482.581 984.021L482.597 984.017C487.013 982.802 492.305 979.255 493.602 972.42C494.899 965.58 492.203 955.412 480.556 940.939C478.821 939.275 476.411 936.336 474.809 932.916C473.275 929.644 472.475 925.917 473.729 922.441C470.947 925.439 467.696 930.536 466.248 935.886C464.739 941.461 465.19 947.284 470.124 951.3C473.829 954.316 477.251 957.623 479.981 961.027L480.01 961.062L480.002 961.106C479.657 963.077 478.668 964.595 477.768 965.619C477.317 966.131 476.888 966.521 476.571 966.783C476.413 966.914 476.282 967.014 476.191 967.08C476.146 967.113 476.11 967.138 476.086 967.155C476.074 967.164 476.064 967.17 476.058 967.175C476.055 967.177 476.052 967.179 476.051 967.18L476.049 967.181L475.993 967.098ZM475.993 967.098L476.048 967.182L476.001 967.212L475.951 967.188L475.993 967.098ZM453.682 961.886C453.835 962.124 454.064 962.47 454.364 962.901C454.964 963.763 455.85 964.966 456.994 966.326C459.282 969.047 462.607 972.406 466.749 974.949C470.852 977.469 471.773 980.238 471.686 982.365C471.641 983.433 471.343 984.346 471.055 984.992C470.911 985.315 470.77 985.571 470.665 985.746C470.613 985.833 470.569 985.9 470.539 985.945C470.533 985.954 470.527 985.961 470.522 985.968C466.181 985.848 462.859 984.763 460.342 983.08C457.814 981.39 456.09 979.096 454.961 976.563C452.748 971.6 452.821 965.728 453.586 961.735C453.614 961.779 453.645 961.83 453.682 961.886ZM483.606 966.652C482.713 967.733 481.975 968.616 481.773 968.833L481.677 968.937L481.807 968.993C483.453 969.705 484.849 971.345 485.85 972.958L486.033 972.889C485.675 970.845 484.89 968.757 483.771 966.669L483.701 966.538L483.606 966.652Z" stroke="#956AEC" stroke-width="0.2"/>
<defs>
<filter id="filter0_d_1673_427" x="366.846" y="593.175" width="47.916" height="52.5977" filterUnits="userSpaceOnUse" color-interpolation-filters="sRGB">
<feFlood flood-opacity="0" result="BackgroundImageFix"/>
<feColorMatrix in="SourceAlpha" type="matrix" values="0 0 0 0 0 0 0 0 0 0 0 0 0 0 0 0 0 0 127 0" result="hardAlpha"/>
<feOffset/>
<feGaussianBlur stdDeviation="5.5"/>
<feComposite in2="hardAlpha" operator="out"/>
<feColorMatrix type="matrix" values="0 0 0 0 1 0 0 0 0 1 0 0 0 0 1 0 0 0 1 0"/>
<feBlend mode="normal" in2="BackgroundImageFix" result="effect1_dropShadow_1673_427"/>
<feBlend mode="normal" in="SourceGraphic" in2="effect1_dropShadow_1673_427" result="shape"/>
</filter>
<filter id="filter1_d_1673_427" x="325.227" y="614.755" width="47.916" height="52.5981" filterUnits="userSpaceOnUse" color-interpolation-filters="sRGB">
<feFlood flood-opacity="0" result="BackgroundImageFix"/>
<feColorMatrix in="SourceAlpha" type="matrix" values="0 0 0 0 0 0 0 0 0 0 0 0 0 0 0 0 0 0 127 0" result="hardAlpha"/>
<feOffset/>
<feGaussianBlur stdDeviation="5.5"/>
<feComposite in2="hardAlpha" operator="out"/>
<feColorMatrix type="matrix" values="0 0 0 0 1 0 0 0 0 1 0 0 0 0 1 0 0 0 1 0"/>
<feBlend mode="normal" in2="BackgroundImageFix" result="effect1_dropShadow_1673_427"/>
<feBlend mode="normal" in="SourceGraphic" in2="effect1_dropShadow_1673_427" result="shape"/>
</filter>
<filter id="filter2_d_1673_427" x="710" y="439" width="265" height="416" filterUnits="userSpaceOnUse" color-interpolation-filters="sRGB">
<feFlood flood-opacity="0" result="BackgroundImageFix"/>
<feColorMatrix in="SourceAlpha" type="matrix" values="0 0 0 0 0 0 0 0 0 0 0 0 0 0 0 0 0 0 127 0" result="hardAlpha"/>
<feOffset dy="4"/>
<feGaussianBlur stdDeviation="2"/>
<feComposite in2="hardAlpha" operator="out"/>
<feColorMatrix type="matrix" values="0 0 0 0 0 0 0 0 0 0 0 0 0 0 0 0 0 0 0.25 0"/>
<feBlend mode="normal" in2="BackgroundImageFix" result="effect1_dropShadow_1673_427"/>
<feBlend mode="normal" in="SourceGraphic" in2="effect1_dropShadow_1673_427" result="shape"/>
</filter>
<filter id="filter3_d_1673_427" x="980.002" y="636.997" width="348.998" height="218.003" filterUnits="userSpaceOnUse" color-interpolation-filters="sRGB">
<feFlood flood-opacity="0" result="BackgroundImageFix"/>
<feColorMatrix in="SourceAlpha" type="matrix" values="0 0 0 0 0 0 0 0 0 0 0 0 0 0 0 0 0 0 127 0" result="hardAlpha"/>
<feOffset dy="4"/>
<feGaussianBlur stdDeviation="2"/>
<feComposite in2="hardAlpha" operator="out"/>
<feColorMatrix type="matrix" values="0 0 0 0 0 0 0 0 0 0 0 0 0 0 0 0 0 0 0.25 0"/>
<feBlend mode="normal" in2="BackgroundImageFix" result="effect1_dropShadow_1673_427"/>
<feBlend mode="normal" in="SourceGraphic" in2="effect1_dropShadow_1673_427" result="shape"/>
</filter>
<filter id="filter4_d_1673_427" x="726" y="256" width="428.998" height="157.004" filterUnits="userSpaceOnUse" color-interpolation-filters="sRGB">
<feFlood flood-opacity="0" result="BackgroundImageFix"/>
<feColorMatrix in="SourceAlpha" type="matrix" values="0 0 0 0 0 0 0 0 0 0 0 0 0 0 0 0 0 0 127 0" result="hardAlpha"/>
<feOffset dy="4"/>
<feGaussianBlur stdDeviation="2"/>
<feComposite in2="hardAlpha" operator="out"/>
<feColorMatrix type="matrix" values="0 0 0 0 0 0 0 0 0 0 0 0 0 0 0 0 0 0 0.25 0"/>
<feBlend mode="normal" in2="BackgroundImageFix" result="effect1_dropShadow_1673_427"/>
<feBlend mode="normal" in="SourceGraphic" in2="effect1_dropShadow_1673_427" result="shape"/>
</filter>
<filter id="filter5_d_1673_427" x="973.961" y="443.48" width="153.6" height="187.52" filterUnits="userSpaceOnUse" color-interpolation-filters="sRGB">
<feFlood flood-opacity="0" result="BackgroundImageFix"/>
<feColorMatrix in="SourceAlpha" type="matrix" values="0 0 0 0 0 0 0 0 0 0 0 0 0 0 0 0 0 0 127 0" result="hardAlpha"/>
<feOffset/>
<feGaussianBlur stdDeviation="5.5"/>
<feComposite in2="hardAlpha" operator="out"/>
<feColorMatrix type="matrix" values="0 0 0 0 1 0 0 0 0 1 0 0 0 0 1 0 0 0 0.25 0"/>
<feBlend mode="normal" in2="BackgroundImageFix" result="effect1_dropShadow_1673_427"/>
<feBlend mode="normal" in="SourceGraphic" in2="effect1_dropShadow_1673_427" result="shape"/>
</filter>
<filter id="filter6_d_1673_427" x="437" y="899" width="71" height="109.001" filterUnits="userSpaceOnUse" color-interpolation-filters="sRGB">
<feFlood flood-opacity="0" result="BackgroundImageFix"/>
<feColorMatrix in="SourceAlpha" type="matrix" values="0 0 0 0 0 0 0 0 0 0 0 0 0 0 0 0 0 0 127 0" result="hardAlpha"/>
<feOffset dy="4"/>
<feGaussianBlur stdDeviation="2"/>
<feComposite in2="hardAlpha" operator="out"/>
<feColorMatrix type="matrix" values="0 0 0 0 0 0 0 0 0 0 0 0 0 0 0 0 0 0 0.25 0"/>
<feBlend mode="normal" in2="BackgroundImageFix" result="effect1_dropShadow_1673_427"/>
<feBlend mode="normal" in="SourceGraphic" in2="effect1_dropShadow_1673_427" result="shape"/>
</filter>
<linearGradient id="paint0_linear_1673_427" x1="368.866" y1="612.169" x2="444.086" y2="726.415" gradientUnits="userSpaceOnUse">
<stop stop-color="#F8CCFF"/>
<stop offset="0.5" stop-color="#B687FF"/>
<stop offset="1" stop-color="#7755B9"/>
</linearGradient>
<linearGradient id="paint1_linear_1673_427" x1="472.5" y1="899" x2="472.5" y2="1000" gradientUnits="userSpaceOnUse">
<stop stop-color="#A49BFF"/>
<stop offset="1" stop-color="#FFA8D5"/>
</linearGradient>
<linearGradient id="paint2_linear_1673_427" x1="473.499" y1="922" x2="473.499" y2="987" gradientUnits="userSpaceOnUse">
<stop stop-color="#A49BFF"/>
<stop offset="1" stop-color="#FFA8D5"/>
</linearGradient>
</defs>
</svg>
